<svg width="800" height="400" viewBox="0 0 800 400" xmlns="http://www.w3.org/2000/svg">
    <!-- Standing Robot -->
    <g transform="translate(150, 100)">
        <g id="robotHead">
            <!-- Head -->
            <rect x="30" y="0" width="60" height="60" rx="10" ry="10" fill="rgb(124, 190, 178)" stroke="black" stroke-width="2"/>
            <!-- Ears -->
            <circle cx="25" cy="20" r="5" fill="rgb(217, 167, 81)" stroke="black" stroke-width="2"/> <!-- Left ear -->
            <circle cx="95" cy="20" r="5" fill="rgb(217, 167, 81)" stroke="black" stroke-width="2"/> <!-- Right ear -->
            <!-- Antennas -->
            <line x1="25" y1="15" x2="20" y2="-10" stroke="black" stroke-width="2"/> <!-- Left antenna -->
            <line x1="95" y1="15" x2="100" y2="-10" stroke="black" stroke-width="2"/> <!-- Right antenna -->
            <!-- Small spheres on top of antennas -->
            <circle cx="20" cy="-10" r="2" fill="gray" stroke="black" stroke-width="2"/> <!-- Left sphere -->
            <circle cx="100" cy="-10" r="2" fill="gray" stroke="black" stroke-width="2"/> <!-- Right sphere -->
            <!-- Eyes -->
            <circle cx="45" cy="20" r="7" fill="white" stroke="black" stroke-width="2"/>
            <circle cx="75" cy="20" r="5" fill="white" stroke="black" stroke-width="2"/>
            <!-- Mouth -->
            <path d="M 48 38 Q 60 45 75 30" fill="none" stroke="black" stroke-width="2"/>
            <!-- Nose -->
            <circle cx="60" cy="25" r="2" fill="black"/>
            <!-- Neck -->
            <rect x="50" y="60" width="20" height="10" rx="2" ry="2" fill="rgb(148, 167, 203)" stroke="black" stroke-width="2"/>
        </g>
        <g id="robotTorso" transform="translate(0, 10)">
            <!-- Upper Arms part till connector -->
            <rect x="10" y="75" width="10" height="10" rx="2" ry="2" fill="rgb(148, 167, 203)" stroke="black" stroke-width="1"/> <!-- Left upper arm -->
            <rect x="100" y="75" width="10" height="10" rx="2" ry="2" fill="rgb(148, 167, 203)" stroke="black" stroke-width="1"/> <!-- Right upper arm -->
            <!-- Lower torso (stomach). Drawn before upper one for z order. -->
            <rect x="30" y="100" width="60" height="60" rx="10" ry="10" fill="rgb(124, 190, 178)" stroke="black" stroke-width="2"/>
            <!-- Upper torso (ripcage) -->
            <rect x="20" y="60" width="80" height="60" rx="10" ry="10" fill="rgb(124, 190, 178)" stroke="black" stroke-width="2"/>
            <!-- Rectangels as joints where arms are attached -->
            <rect x="-5" y="70" width="20" height="20" rx="5" ry="5" fill="rgb(217, 167, 81)" stroke="black" stroke-width="2"/> <!-- Left joint -->
            <rect x="105" y="70" width="20" height="20" rx="5" ry="5" fill="rgb(217, 167, 81)" stroke="black" stroke-width="2"/> <!-- Right joint -->
            <!-- Lower arms parts -->
            <rect x="0" y="90" width="10" height="30" rx="2" ry="2" fill="rgb(148, 167, 203)" stroke="black" stroke-width="1"/> <!-- Left lower arm -->
            <rect x="110" y="90" width="10" height="30" rx="2" ry="2" fill="rgb(148, 167, 203)" stroke="black" stroke-width="1"/> <!-- Right lower arm -->

            <!-- two fingers at each hand. each finger consists of two lines at an angle (joint in the middle) -->
            <!-- left hand fingers -->
            <line x1="2" y1="125" x2="-2" y2="135" stroke="gray" stroke-width="5"/> <!-- Left hand left finger upper part -->
            <line x1="-2" y1="132" x2="2" y2="145" stroke="gray" stroke-width="5"/> <!-- Left hand left finger lower part -->
            <line x1="8" y1="125" x2="12" y2="135" stroke="gray" stroke-width="5"/> <!-- Left hand right finger upper part -->
            <line x1="12" y1="132" x2="8" y2="145" stroke="gray" stroke-width="5"/> <!-- Left hand right finger lower part -->
            <!-- right hand fingers -->
            <line x1="112" y1="125" x2="108" y2="135" stroke="gray" stroke-width="5"/> <!-- Right hand left finger upper part -->
            <line x1="108" y1="132" x2="112" y2="145" stroke="gray" stroke-width="5"/> <!-- Right hand left finger lower part -->
            <line x1="118" y1="125" x2="122" y2="135" stroke="gray" stroke-width="5"/> <!-- Right hand right finger upper part -->
            <line x1="122" y1="132" x2="118" y2="145" stroke="gray" stroke-width="5"/> <!-- Right hand right finger lower part -->
            <!-- Spheres as hands. Drawn after fingers for z order. -->
            <circle cx="5" cy="120" r="10" fill="rgb(217, 167, 81)" stroke="black" stroke-width="2"/> <!-- Left hand -->
            <circle cx="115" cy="120" r="10" fill="rgb(217, 167, 81)" stroke="black" stroke-width="2"/> <!-- Right hand -->

        </g>
        <g id="robotLegs" transform="translate(0, 10)">
            <!-- Spheres as joints where legs are attached -->
            <circle cx="40" cy="160" r="10" fill="rgb(217, 167, 81)" stroke="black" stroke-width="2"/> <!-- Left sphere -->
            <circle cx="80" cy="160" r="10" fill="rgb(217, 167, 81)" stroke="black" stroke-width="2"/> <!-- Right sphere -->

            <!-- replace upper leg parts from directly above with rectangles instead of lines. fill with same color as arms parts -->
            <rect x="35" y="170" width="10" height="15" rx="2" ry="2" fill="rgb(148, 167, 203)" stroke="black" stroke-width="1"/> <!-- Left upper leg -->
            <rect x="75" y="170" width="10" height="15" rx="2" ry="2" fill="rgb(148, 167, 203)" stroke="black" stroke-width="1"/> <!-- Right upper leg -->

            <!-- Circles as knees -->
            <circle cx="40" cy="185" r="8" fill="rgb(217, 167, 81)" stroke="black" stroke-width="2"/> <!-- Left knee -->
            <circle cx="80" cy="185" r="8" fill="rgb(217, 167, 81)" stroke="black" stroke-width="2"/> <!-- Right knee -->
            <!-- Rounded rectangles as boots (boot upper part) -->
            <rect x="32" y="192" width="15" height="20" rx="2" ry="2" fill="rgb(124, 190, 178)" stroke="black" stroke-width="2"/> <!-- Left foot -->
            <rect x="73" y="192" width="15" height="20" rx="2" ry="2" fill="rgb(124, 190, 178)" stroke="black" stroke-width="2"/> <!-- Right foot -->
            <!-- Rounded rectangles as feet (boot lower part) -->
            <rect x="28" y="210" width="22" height="10" rx="5" ry="5" fill="gray" stroke="black" stroke-width="2"/> <!-- Left foot -->
            <rect x="70" y="210" width="22" height="10" rx="5" ry="5" fill="gray" stroke="black" stroke-width="2"/> <!-- Right foot -->
        </g>
    </g>

    <!-- Walking Robot -->
    <g transform="translate(450, 100)">
        <!-- Head -->
        <rect x="30" y="0" width="60" height="60" rx="10" ry="10" fill="gray" stroke="black" stroke-width="2"/>
        <!-- Antennas -->
        <line x1="20" y1="10" x2="30" y2="-10" stroke="black" stroke-width="2"/>
        <line x1="100" y1="10" x2="90" y2="-10" stroke="black" stroke-width="2"/>
        <!-- Eyes -->
        <circle cx="45" cy="20" r="5" fill="white" stroke="black" stroke-width="2"/>
        <circle cx="75" cy="20" r="5" fill="white" stroke="black" stroke-width="2"/>
        <!-- Body -->
        <rect x="20" y="60" width="80" height="100" rx="10" ry="10" fill="gray" stroke="black" stroke-width="2"/>
        <!-- Arms -->
        <line x1="0" y1="90" x2="20" y2="80" stroke="black" stroke-width="4"/>
        <line x1="120" y1="90" x2="100" y2="100" stroke="black" stroke-width="4"/>
        <!-- Legs -->
        <line x1="40" y1="160" x2="30" y2="200" stroke="black" stroke-width="4"/>
        <line x1="80" y1="160" x2="90" y2="200" stroke="black" stroke-width="4"/>
    </g>
</svg>
